<?xml version="1.0" encoding="UTF-8" standalone="no"?> <svg xmlns="http://www.w3.org/2000/svg" xmlns:xlink="http://www.w3.org/1999/xlink" viewBox="0 0 64 64"><defs><style>.cls-1{fill:url(#linear-gradient);}.cls-2{fill:url(#linear-gradient-2);}</style><linearGradient id="linear-gradient" x1="7.75" y1="32" x2="61.25" y2="32" gradientUnits="userSpaceOnUse"><stop offset="0" stop-color="#17a6d7"/><stop offset="1" stop-color="#9d31fe"/></linearGradient><linearGradient id="linear-gradient-2" x1="25.75" y1="32" x2="34.25" y2="32" xlink:href="#linear-gradient"/></defs><g id="Layer_38" data-name="Layer 38"><path class="cls-1" d="M57,6.25H39.25V4a1.25,1.25,0,0,0-.46-1,1.22,1.22,0,0,0-1-.25L11.14,8.28a4.28,4.28,0,0,0-3.39,4.16V51.56a4.28,4.28,0,0,0,3.39,4.16l26.61,5.5A1.25,1.25,0,0,0,39.25,60V57.75H57a4.26,4.26,0,0,0,4.25-4.25v-43A4.26,4.26,0,0,0,57,6.25ZM36.75,58.46l-25.1-5.19a1.76,1.76,0,0,1-1.4-1.71V12.44a1.76,1.76,0,0,1,1.4-1.71l25.1-5.19Zm22-5A1.76,1.76,0,0,1,57,55.25H39.25V8.75H57a1.76,1.76,0,0,1,1.75,1.75Z"/><path class="cls-2" d="M30,36.25A4.25,4.25,0,1,0,25.75,32,4.26,4.26,0,0,0,30,36.25Zm0-6A1.75,1.75,0,1,1,28.25,32,1.76,1.76,0,0,1,30,30.25Z"/></g></svg>